<?xml version="1.0" encoding="utf-8"?>
<!-- Generator: Adobe Illustrator 17.0.2, SVG Export Plug-In . SVG Version: 6.00 Build 0)  -->
<!DOCTYPE svg PUBLIC "-//W3C//DTD SVG 1.1//EN" "http://www.w3.org/Graphics/SVG/1.1/DTD/svg11.dtd">
<svg version="1.1" id="Layer_1" xmlns="http://www.w3.org/2000/svg" xmlns:xlink="http://www.w3.org/1999/xlink" x="0px" y="0px"
	 width="379.346px" height="566.874px" viewBox="0 0 379.346 566.874" enable-background="new 0 0 379.346 566.874"
	 xml:space="preserve">
<path fill="#FCEE17" d="M183.121,565.848c-11.16-5.904-22.536-11.304-34.2-16.128c-31.176-12.96-63.576-23.112-94.392-37.08
	c-52.2-23.688-55.008-67.824-47.52-118.44c8.64-58.248,18.432-124.128-5.904-176.832c-3.168-6.912,0.792-16.56,7.848-19.296
	c26.28-10.008,55.08-17.496,84.744-22.608c6.912-1.224,13.752-2.304,20.592-3.24c-1.08-1.728-1.8-3.672-2.232-5.688
	c-3.528-3.168-5.76-7.632-6.12-12.384c-5.76-1.008-11.088-4.032-14.472-8.928c-4.536-2.088-8.064-5.976-9.648-10.728
	c-3.672-2.808-6.264-6.84-7.344-11.304c-7.128-6.624-8.64-17.568-3.96-25.992c-0.864-8.352,3.384-16.416,10.656-20.52
	c2.736-7.56,9.792-12.888,17.784-13.68c4.752-5.4,12.168-7.992,19.296-6.696c4.824-2.952,10.8-3.816,16.272-2.304
	c0.792-0.288,1.656-0.576,2.448-0.792c3.96-5.328,10.224-8.568,16.848-8.712c2.88-2.376,6.408-3.888,10.08-4.536
	c-1.44-2.592-2.232-5.544-2.232-8.64v-6.48c0-6.48,3.528-12.456,9.144-15.624C173.977,3.6,179.953,0,186.505,0h6.336
	c6.552,0,12.528,3.6,15.696,9.216c5.616,3.168,9.144,9.144,9.144,15.624v6.48c0,3.096-0.792,6.048-2.232,8.64
	c3.672,0.648,7.2,2.16,10.08,4.536c6.624,0.144,12.888,3.456,16.848,8.712c0.792,0.216,1.656,0.504,2.448,0.792
	c5.472-1.512,11.448-0.648,16.272,2.304c7.128-1.296,14.472,1.296,19.296,6.696c7.992,0.72,14.976,6.12,17.712,13.68
	c7.272,4.032,11.592,12.24,10.656,20.52c4.176,7.272,3.6,16.56-1.44,23.256l0,0c-0.792,0.936-1.584,1.872-2.448,2.736
	c-1.08,4.464-3.672,8.496-7.272,11.304c-1.656,4.752-5.184,8.568-9.72,10.728c-3.384,4.896-8.712,7.92-14.472,8.928
	c-0.36,4.752-2.664,9.216-6.12,12.384c-0.432,2.016-1.152,3.96-2.232,5.688c6.84,0.936,13.68,2.016,20.592,3.24
	c29.664,5.112,58.464,12.6,84.744,22.608c7.056,2.736,11.016,12.384,7.848,19.296c-24.336,52.704-14.544,118.584-5.904,176.832
	c7.488,50.616,4.68,94.752-47.52,118.44c-30.816,13.968-63.216,24.12-94.392,37.08c-11.664,4.824-23.04,10.224-34.2,16.128
	C193.489,567.216,185.857,567.216,183.121,565.848z"/>
<path fill="#ED1C24" d="M189.673,556.416c-11.88-6.264-23.976-12.024-36.36-17.208c-31.104-12.96-63.432-23.04-94.104-36.936
	c-47.16-21.456-47.664-61.2-40.968-106.416c9.216-61.632,19.224-126.864-8.064-186.048c27.72-10.584,56.16-18.072,85.464-23.112
	c64.08-11.16,123.984-11.16,188.064,0c29.304,5.04,57.744,12.528,85.464,23.112c-27.288,59.184-17.28,124.416-8.064,186.048
	c6.696,45.216,6.192,84.96-40.968,106.416c-30.672,13.896-63,23.976-94.104,36.936C213.649,544.392,201.553,550.152,189.673,556.416
	z"/>
<path fill="#FCEE17" d="M212.929,538.704c3.672-1.656,7.272-3.24,10.944-4.752c11.808-4.896,23.76-9.36,35.712-13.824v-71.784
	h46.584v53.784c3.888-1.656,7.776-3.312,11.664-5.04c44.64-20.304,43.92-57.888,37.584-100.44
	c-8.856-59.616-18.792-126.864,6.048-183.672c-17.424-6.48-36.072-11.808-55.296-16.056v202.536h-46.584v-19.8h17.496v-72.864
	h-17.496V188.784c-15.552-2.088-31.104-3.456-46.656-4.104v122.112h-46.512V184.68c-15.552,0.648-31.104,2.016-46.656,4.104v118.008
	h-17.496v72.864h17.496v19.8H73.177V196.92c-19.224,4.248-37.872,9.576-55.296,16.056c24.84,56.808,14.904,124.056,6.048,183.672
	c-6.336,42.552-7.056,80.136,37.584,100.44c3.888,1.728,7.776,3.384,11.664,5.04v-53.784h46.584v71.784
	c11.952,4.464,23.904,8.928,35.712,13.824c3.672,1.512,7.272,3.096,10.944,4.752v-90.36h46.512V538.704z"/>
<path fill="#ED1C24" d="M120.481,366.048v-3.6h3.96c1.728,0,2.808-0.216,3.24-0.648c0.504-0.36,0.72-1.44,0.72-3.24v-27.216
	c0-1.728-0.216-2.808-0.72-3.24c-0.432-0.504-1.512-0.72-3.24-0.72h-4.464v-3.6c4.032-0.144,7.344-0.576,10.008-1.296
	c2.664-0.792,4.608-1.872,5.904-3.24h2.664v39.312c0,1.728,0.216,2.808,0.72,3.24c0.432,0.432,1.512,0.648,3.24,0.648h3.744v3.6
	H120.481z"/>
<path fill="#ED1C24" d="M163.465,333.432c0,3.672,0.432,6.336,1.296,7.992c0.864,1.728,2.232,2.592,4.104,2.592
	c1.872,0,3.312-0.864,4.176-2.592c0.936-1.728,1.368-4.392,1.368-7.992c0-3.672-0.432-6.336-1.368-8.064
	c-0.864-1.656-2.304-2.52-4.176-2.52c-1.872,0-3.24,0.792-4.104,2.52C163.897,327.096,163.465,329.76,163.465,333.432
	L163.465,333.432z M174.769,344.16c-1.296,1.584-2.736,2.808-4.248,3.6c-1.584,0.72-3.312,1.152-5.256,1.152
	c-3.816,0-6.84-1.296-9.216-3.96c-2.376-2.664-3.528-6.048-3.528-10.368s1.512-7.992,4.536-10.872
	c3.024-2.88,6.768-4.392,11.376-4.392c5.328,0,9.576,2.016,12.6,5.976c3.024,3.96,4.536,9.432,4.536,16.416
	c0,7.848-1.8,14.112-5.4,18.648c-3.672,4.608-8.568,6.912-14.688,6.912c-3.456,0-6.264-0.864-8.496-2.52
	c-2.16-1.656-3.24-3.816-3.24-6.408c0-1.944,0.504-3.528,1.512-4.608c1.008-1.08,2.448-1.584,4.32-1.584
	c1.8,0,3.24,0.432,4.32,1.368c1.008,0.936,1.512,2.232,1.512,3.888c0,1.152-0.36,2.232-1.152,3.24
	c-0.792,1.08-1.224,1.656-1.224,1.8c0,0.576,0.288,1.008,0.792,1.224c0.504,0.288,1.224,0.432,2.232,0.432
	c2.808,0,4.968-1.728,6.48-5.112C174.049,355.608,174.769,350.64,174.769,344.16z"/>
<path fill="#ED1C24" d="M207.529,349.632v-16.704l-12.888,16.704H207.529L207.529,349.632z M201.409,366.048v-3.6h2.448
	c1.584,0,2.664-0.216,3.096-0.576c0.36-0.432,0.576-1.512,0.576-3.312v-4.536h-17.424v-4.896l23.256-29.664h4.392
	c-0.072,2.304-0.216,4.32-0.216,6.264c-0.072,1.872-0.144,3.672-0.144,5.256v18.648h6.336v4.392h-6.336v4.536
	c0,1.8,0.216,2.88,0.648,3.312c0.504,0.36,1.512,0.576,3.168,0.576h1.728v3.6H201.409z"/>
<path fill="#ED1C24" d="M226.681,366.048v-2.376c2.304-3.24,5.328-6.984,9-11.16c3.6-4.176,5.688-6.552,6.192-7.128
	c2.448-3.024,4.104-5.544,4.968-7.632c0.864-2.088,1.296-4.392,1.296-6.84c0-2.592-0.576-4.536-1.728-5.904
	c-1.152-1.368-2.88-2.088-5.04-2.088c-1.944,0-3.6,0.504-4.968,1.44c-1.368,0.936-2.088,2.016-2.088,3.168
	c0,0.432,0.432,0.864,1.224,1.224c0.216,0.072,0.432,0.144,0.576,0.216c1.224,0.648,2.16,1.368,2.736,2.232
	c0.648,0.864,0.936,1.944,0.936,3.24c0,1.656-0.504,3.024-1.512,4.104c-1.008,1.08-2.232,1.584-3.816,1.584
	c-1.944,0-3.456-0.72-4.608-2.088c-1.08-1.368-1.656-3.312-1.656-5.76c0-3.816,1.44-6.912,4.32-9.288
	c2.88-2.376,6.696-3.6,11.448-3.6c4.536,0,8.136,1.224,10.872,3.528c2.808,2.376,4.176,5.4,4.176,9.144
	c0,2.88-0.648,5.472-2.088,7.704c-1.368,2.16-3.816,4.536-7.272,7.056c-1.152,0.864-2.808,1.944-4.968,3.384
	c-4.032,2.808-6.84,4.896-8.352,6.336h14.04c2.16,0,3.456-0.432,3.96-1.152c0.576-0.72,1.08-3.024,1.656-6.768h3.384l-1.512,17.424
	c-2.808-0.072-5.472-0.144-8.064-0.216c-2.52-0.072-4.968-0.072-7.344-0.072c-2.376,0-4.824,0-7.416,0.072
	C232.513,365.904,229.705,365.976,226.681,366.048z"/>
<polygon fill="#ED1C24" points="51.865,412.128 58.705,412.128 58.705,421.056 65.905,412.128 75.121,412.128 66.985,420.984 
	75.481,435.672 66.985,435.672 62.305,425.952 58.705,429.912 58.705,435.672 51.865,435.672 "/>
<rect x="77.353" y="429.12" fill="#ED1C24" width="6.624" height="6.552"/>
<polygon fill="#ED1C24" points="98.521,412.128 105.361,412.128 105.361,421.056 112.633,412.128 121.777,412.128 113.641,420.984 
	122.137,435.672 113.641,435.672 108.961,425.952 105.361,429.912 105.361,435.672 98.521,435.672 "/>
<path fill="#ED1C24" d="M122.425,423.936c0-3.888,1.08-6.84,3.096-9c2.016-2.088,4.824-3.168,8.424-3.168
	c3.744,0,6.552,1.008,8.568,3.168c2.016,2.088,3.024,5.04,3.024,8.784c0,2.736-0.432,4.968-1.296,6.768
	c-0.864,1.728-2.16,3.096-3.816,4.104c-1.656,0.936-3.744,1.44-6.192,1.44c-2.52,0-4.608-0.432-6.264-1.224
	c-1.584-0.864-2.952-2.232-3.96-4.032C123.001,428.976,122.425,426.672,122.425,423.936L122.425,423.936z M129.337,423.936
	c0,2.376,0.432,4.104,1.296,5.112c0.792,1.08,1.944,1.584,3.384,1.584c1.44,0,2.592-0.504,3.456-1.512
	c0.792-1.08,1.224-2.88,1.224-5.472c0-2.232-0.432-3.816-1.296-4.896c-0.864-1.008-2.016-1.512-3.456-1.512
	c-1.368,0-2.52,0.504-3.312,1.584C129.769,419.832,129.337,421.56,129.337,423.936z"/>
<polygon fill="#ED1C24" points="149.281,412.128 155.761,412.128 164.113,425.16 164.113,412.128 170.593,412.128 170.593,435.672 
	164.113,435.672 155.761,422.712 155.761,435.672 149.281,435.672 "/>
<polygon fill="#ED1C24" points="173.617,412.128 194.425,412.128 194.425,417.96 187.513,417.96 187.513,435.672 180.601,435.672 
	180.601,417.96 173.617,417.96 "/>
<rect x="197.881" y="412.128" fill="#ED1C24" width="6.84" height="23.544"/>
<path fill="#ED1C24" d="M224.521,426.024l6.048,1.944c-0.432,1.8-1.08,3.24-1.944,4.464c-0.864,1.224-1.944,2.088-3.24,2.736
	c-1.296,0.576-2.952,0.864-4.896,0.864c-2.448,0-4.464-0.36-5.976-1.08c-1.512-0.72-2.88-2.016-3.96-3.888
	c-1.08-1.872-1.656-4.32-1.656-7.2c0-3.888,0.936-6.912,2.952-9c1.944-2.088,4.68-3.096,8.28-3.096c2.808,0,5.04,0.576,6.624,1.8
	c1.584,1.152,2.808,3.024,3.6,5.472l-6.12,1.44c-0.216-0.72-0.432-1.224-0.648-1.584c-0.36-0.504-0.864-0.936-1.44-1.296
	c-0.504-0.288-1.152-0.432-1.872-0.432c-1.512,0-2.736,0.648-3.528,2.016c-0.648,0.936-0.936,2.52-0.936,4.608
	c0,2.592,0.36,4.392,1.08,5.4c0.792,0.936,1.8,1.44,3.168,1.44c1.296,0,2.304-0.432,3.024-1.224
	C223.729,428.688,224.233,427.536,224.521,426.024z"/>
<polygon fill="#ED1C24" points="233.953,412.128 240.793,412.128 240.793,420.408 248.353,420.408 248.353,412.128 255.265,412.128 
	255.265,435.672 248.353,435.672 248.353,426.168 240.793,426.168 240.793,435.672 233.953,435.672 "/>
<polygon fill="#ED1C24" points="270.241,412.128 287.233,412.128 287.233,417.168 277.153,417.168 277.153,421.272 285.793,421.272 
	285.793,426.024 277.153,426.024 277.153,435.672 270.241,435.672 "/>
<rect x="285.793" y="429.12" fill="#ED1C24" width="6.624" height="6.552"/>
<path fill="#ED1C24" d="M311.353,426.024l6.048,1.944c-0.36,1.8-1.008,3.24-1.872,4.464c-0.864,1.224-2.016,2.088-3.24,2.736
	c-1.296,0.576-2.952,0.864-4.968,0.864c-2.448,0-4.392-0.36-5.904-1.08c-1.584-0.72-2.88-2.016-4.032-3.888
	c-1.08-1.872-1.656-4.32-1.656-7.2c0-3.888,1.008-6.912,2.952-9c1.944-2.088,4.752-3.096,8.352-3.096c2.808,0,4.968,0.576,6.624,1.8
	c1.584,1.152,2.736,3.024,3.528,5.472l-6.048,1.44c-0.216-0.72-0.432-1.224-0.648-1.584c-0.432-0.504-0.864-0.936-1.44-1.296
	c-0.576-0.288-1.152-0.432-1.872-0.432c-1.584,0-2.736,0.648-3.6,2.016c-0.648,0.936-0.936,2.52-0.936,4.608
	c0,2.592,0.36,4.392,1.152,5.4c0.72,0.936,1.8,1.44,3.168,1.44c1.296,0,2.304-0.432,2.952-1.224
	C310.561,428.688,311.065,427.536,311.353,426.024z"/>
<rect x="320.929" y="429.12" fill="#ED1C24" width="6.552" height="6.552"/>
<path fill="#ED1C24" d="M243.313,173.376c-8.568-2.88-17.712-5.112-27-6.696c-18.072-3.024-35.208-3.024-53.28,0
	c-9.288,1.584-18.432,3.816-27,6.696c-1.584,0.504-3.168,1.008-4.176-2.16c-0.144-0.216-0.144-0.432-0.216-0.648
	c-5.472,0.072-10.296-4.896-7.92-10.368c-4.968-0.936-8.28-6.408-5.328-10.944c-2.664-1.872-4.104-4.032-5.112-6.408
	c-5.904,1.008-12.024-0.864-13.824-7.056c-4.608-0.432-7.92-3.96-7.056-8.64c-4.752-0.936-7.848-5.616-6.84-10.224
	c-7.344-2.808-8.64-12.528-2.448-17.136c-3.672-6.192,0.864-14.544,8.424-14.4c-1.512-7.92,7.056-13.608,13.68-10.008
	c1.08-7.488,10.008-10.512,15.48-5.76c2.88-5.328,9.864-6.624,14.4-2.736c2.376-2.376,5.904-3.456,9.216-2.736
	c1.152-6.192,7.848-10.08,13.896-7.56c3.024-5.688,10.8-7.632,16.056-3.024c0.576-5.256,2.376-9.504,6.48-12.096
	c-0.648-1.08-0.936-2.232-0.936-3.528c-3.744,0-6.768-2.88-6.768-6.624v-6.48c0-3.744,3.024-6.624,6.768-6.624
	c0-3.744,2.88-6.768,6.696-6.768c2.16,0,4.176,0,6.336,0c3.816,0,6.696,3.024,6.696,6.768c3.744,0,6.768,2.88,6.768,6.624v6.48
	c0,3.744-3.024,6.624-6.768,6.624c0,1.296-0.288,2.448-0.936,3.528c4.104,2.592,5.904,6.84,6.48,12.096
	c5.256-4.608,13.032-2.664,16.056,3.024c5.976-2.448,12.744,1.296,13.896,7.56c3.312-0.72,6.84,0.36,9.216,2.736
	c4.536-3.888,11.52-2.592,14.4,2.736c5.472-4.752,14.4-1.728,15.48,5.76c6.984-3.816,15.12,2.448,13.68,10.008
	c0.072,0,0.144,0,0.144,0c7.488,0,11.88,8.208,8.28,14.4c6.192,4.608,4.897,14.328-2.448,17.136
	c1.008,4.608-2.088,9.288-6.84,10.224c0.864,4.752-2.52,8.208-7.056,8.64c-1.8,6.264-8.064,8.064-13.752,7.056
	c-1.08,2.376-2.52,4.536-5.184,6.408c3.024,4.608-0.504,10.008-5.328,10.944c2.376,5.472-2.448,10.44-7.92,10.368
	c-0.072,0.216-0.072,0.432-0.216,0.648C246.481,174.384,244.897,173.88,243.313,173.376z"/>
<path fill="#FCEE17" d="M193.129,155.88c0.648-0.576,1.08-1.296,1.08-2.088c0-0.792-0.432-1.512-1.08-2.088
	c-0.864-0.72-2.088-1.152-3.456-1.152l0,0c-1.368,0-2.592,0.432-3.456,1.152c-0.648,0.576-1.08,1.296-1.08,2.088
	c0,0.792,0.432,1.512,1.08,2.088C188.089,157.464,191.257,157.464,193.129,155.88z"/>
<path fill="#FCEE17" d="M192.985,104.76v3.816h2.16c1.656,0,3.312,0,3.312,3.312c0,3.384-1.656,3.384-3.312,3.384h-2.16
	c0,1.296-0.864,4.176,0.72,3.96c4.608-0.648,6.552-4.104,6.12-8.496c-1.224-12.816-19.08-12.816-20.304,0
	c-0.432,4.536,1.512,7.848,6.12,8.496c1.584,0.216,0.72-2.664,0.72-3.96h-2.16c-1.656,0-3.312,0-3.312-3.384
	c0-3.312,1.656-3.312,3.312-3.312h2.16v-3.816C186.361,100.224,192.985,100.152,192.985,104.76z"/>
<path fill="#FCEE17" d="M193.705,88.848c0-5.472-8.064-5.472-8.064,0C185.641,94.248,193.705,94.248,193.705,88.848z"/>
<path fill="#FCEE17" d="M193.705,73.08c0-2.232-1.8-4.104-4.032-4.104l0,0c-2.232,0-4.032,1.872-4.032,4.104
	C185.641,78.48,193.705,78.48,193.705,73.08z"/>
<path fill="#FCEE17" d="M193.705,57.528c0-5.4-8.064-5.4-8.064,0C185.641,63,193.705,63,193.705,57.528z"/>
<path fill="#FCEE17" d="M196.369,49.176c-3.312-4.68-10.08-4.68-13.392,0C186.937,46.008,192.409,46.008,196.369,49.176z"/>
<path fill="#FCEE17" d="M192.841,38.016v-3.384c0-1.656,1.656-3.384,3.312-3.384h3.456v-6.336h-3.456
	c-1.656,0-3.312-1.728-3.312-3.384v-3.384c-2.16,0-4.176,0-6.336,0v3.384c0,1.656-1.656,3.384-3.312,3.384h-3.456v6.336h3.456
	c1.656,0,3.312,1.728,3.312,3.384v3.384C188.665,38.016,190.681,38.016,192.841,38.016z"/>
<path fill="#FCEE17" d="M179.449,158.04c-3.672,0.216-7.416,0.576-11.088,1.08c0.36-1.08,0.504-2.232,0.36-3.384
	c-0.144-1.656-0.792-3.168-1.728-4.464c4.032-0.432,8.064-0.792,12.168-1.008c-0.504,1.08-0.72,2.304-0.72,3.528
	C178.441,155.304,178.801,156.744,179.449,158.04z"/>
<path fill="#FCEE17" d="M150.001,162.504c-3.384,0.792-6.768,1.656-10.08,2.592c0.432-1.08,0.576-2.304,0.432-3.528
	c-0.288-1.872-1.296-3.456-2.664-4.608c3.456-0.936,6.984-1.8,10.512-2.592c-0.288,1.008-0.432,2.088-0.36,3.24
	C148.057,159.48,148.777,161.136,150.001,162.504z"/>
<path fill="#FCEE17" d="M158.065,154.08c1.152-0.072,2.232,0.216,2.952,0.72c0.576,0.36,1.008,0.936,1.008,1.512
	c0.072,0.648-0.216,1.224-0.72,1.728c-0.648,0.648-1.584,1.08-2.736,1.224c-1.224,0.072-2.232-0.216-3.024-0.72
	c-0.576-0.36-0.936-0.936-1.008-1.512c0-0.648,0.216-1.224,0.72-1.728C155.905,154.656,156.913,154.224,158.065,154.08z"/>
<path fill="#FCEE17" d="M131.641,161.712c0.648-0.072,1.224,0,1.656,0.288c0.216,0.144,0.36,0.36,0.432,0.504
	c0,0.144-0.072,0.36-0.288,0.576c-0.36,0.432-0.864,0.648-1.512,0.792c-0.648,0.072-1.224-0.072-1.656-0.288
	c-0.288-0.144-0.432-0.36-0.432-0.504c-0.072-0.144,0.072-0.432,0.288-0.576C130.417,162.072,130.993,161.784,131.641,161.712z"/>
<path fill="#FCEE17" d="M94.057,116.64c1.08,0,1.944,0.864,1.944,1.944c0,1.152-0.864,2.016-1.944,2.016
	c-1.152,0-2.016-0.864-2.016-2.016C92.041,117.504,92.905,116.64,94.057,116.64z"/>
<path fill="#FCEE17" d="M110.761,136.368c-1.656,0.144-2.88-0.144-3.672-0.72c-0.72-0.432-1.152-1.152-1.368-2.088c0,0,0,0,0-0.072
	c0.144-0.072,0.216-0.144,0.288-0.216c0.792-0.648,1.656-1.296,2.952,0.216C109.753,134.352,110.329,135.36,110.761,136.368z"/>
<path fill="#FCEE17" d="M155.905,77.184c0.504,6.192,0.288,12.312-0.432,18.288c-0.648,4.68-1.512,9.288-2.664,13.752
	c-0.576-1.44-1.08-2.88-1.512-4.392c-1.656-5.472-2.52-11.016-2.088-15.84c0.504-4.464,2.16-8.352,5.544-11.016
	C155.113,77.688,155.545,77.4,155.905,77.184z"/>
<path fill="#FCEE17" d="M177.217,99.936c-0.144,0-0.216,0-0.36,0c-0.936-0.072-1.656-0.504-2.16-1.08
	c-0.648-0.792-1.152-1.944-1.296-3.384c-0.792-5.904-3.024-26.928,3.6-28.872c0.288,8.496,0.792,23.688,0.576,32.976
	C177.433,99.72,177.361,99.864,177.217,99.936z"/>
<path fill="#FCEE17" d="M167.425,57.672c2.016,0,3.672,1.656,3.672,3.672c0,1.008-0.36,1.944-1.08,2.592v0.072
	c-0.648,0.649-1.584,1.008-2.592,1.008c-2.016,0-3.672-1.656-3.672-3.672c0-1.008,0.432-1.944,1.079-2.592l0,0
	C165.481,58.104,166.417,57.672,167.425,57.672z"/>
<path fill="#FCEE17" d="M154.321,62.568c1.944,0,3.528,1.584,3.528,3.528c0,0.936-0.432,1.8-1.008,2.448l0,0
	c-0.648,0.648-1.512,1.008-2.52,1.008c-1.944,0-3.528-1.584-3.528-3.456c0-1.008,0.432-1.872,1.008-2.52h0.072
	C152.449,62.928,153.385,62.568,154.321,62.568z"/>
<path fill="#FCEE17" d="M142.153,70.632c1.872,0,3.384,1.512,3.384,3.384c0,1.8-1.512,3.312-3.384,3.312
	c-1.8,0-3.312-1.512-3.312-3.312C138.841,72.144,140.353,70.632,142.153,70.632z"/>
<path fill="#FCEE17" d="M136.105,82.944c1.8,0,3.312,1.512,3.312,3.312c0,0.936-0.432,1.728-1.008,2.376
	c-0.576,0.576-1.44,0.936-2.304,0.936c-1.872,0-3.384-1.512-3.384-3.312c0-0.936,0.432-1.728,1.008-2.304
	C134.305,83.304,135.169,82.944,136.105,82.944z"/>
<path fill="#FCEE17" d="M136.321,96.552c1.8,0,3.312,1.512,3.312,3.312c0,0.935-0.36,1.727-1.008,2.376
	c-0.576,0.576-1.368,0.935-2.304,0.935c-1.8,0-3.312-1.512-3.312-3.311c0-0.937,0.36-1.729,0.936-2.304
	C134.593,96.912,135.385,96.552,136.321,96.552z"/>
<path fill="#FCEE17" d="M140.785,109.368c1.656,0,3.024,1.368,3.024,3.024c0,0.864-0.36,1.584-0.936,2.16l0,0
	c-0.504,0.576-1.296,0.936-2.088,0.936c-1.728,0-3.096-1.368-3.096-3.096c0-0.864,0.36-1.584,0.864-2.16h0.072
	C139.129,109.728,139.921,109.368,140.785,109.368z"/>
<path fill="#FCEE17" d="M89.017,104.544c1.728,0,3.168,1.368,3.168,3.168c0,1.728-1.44,3.096-3.168,3.096
	c-1.728,0-3.168-1.368-3.168-3.096C85.849,105.912,87.289,104.544,89.017,104.544z"/>
<path fill="#FCEE17" d="M91.393,92.088c1.512,0,2.808,1.296,2.808,2.88c0,1.584-1.296,2.88-2.808,2.88
	c-1.584,0-2.88-1.296-2.88-2.88C88.513,93.384,89.809,92.088,91.393,92.088z"/>
<path fill="#FCEE17" d="M100.753,81c1.512,0,2.736,1.152,2.736,2.664c0,1.512-1.224,2.736-2.736,2.736
	c-1.44,0-2.664-1.224-2.664-2.736C98.089,82.152,99.313,81,100.753,81z"/>
<path fill="#FCEE17" d="M114.577,74.016c1.44,0,2.664,1.224,2.664,2.736c0,1.44-1.224,2.664-2.664,2.664
	c-1.512,0-2.736-1.224-2.736-2.664C111.841,75.24,113.065,74.016,114.577,74.016z"/>
<path fill="#FCEE17" d="M128.977,71.352c1.512,0,2.736,1.224,2.736,2.664c0,1.512-1.224,2.736-2.736,2.736
	c-1.512,0-2.664-1.224-2.664-2.736C126.313,72.576,127.465,71.352,128.977,71.352z"/>
<path fill="#FCEE17" d="M199.897,158.04c3.672,0.216,7.416,0.576,11.088,1.08c-0.36-1.08-0.504-2.232-0.36-3.384
	c0.144-1.656,0.792-3.168,1.728-4.464c-4.032-0.432-8.064-0.792-12.168-1.008c0.504,1.08,0.72,2.304,0.72,3.528
	C200.905,155.304,200.545,156.744,199.897,158.04z"/>
<path fill="#FCEE17" d="M229.345,162.504c3.384,0.792,6.768,1.656,10.08,2.592c-0.432-1.08-0.576-2.304-0.432-3.528
	c0.288-1.872,1.296-3.456,2.664-4.608c-3.456-0.936-6.984-1.8-10.512-2.592c0.288,1.008,0.432,2.088,0.36,3.24
	C231.289,159.48,230.569,161.136,229.345,162.504z"/>
<path fill="#FCEE17" d="M221.281,154.08c-1.152-0.072-2.232,0.216-2.952,0.72c-0.576,0.36-1.008,0.936-1.008,1.512
	c-0.072,0.648,0.216,1.224,0.72,1.728c0.648,0.648,1.584,1.08,2.736,1.224c1.224,0.072,2.232-0.216,3.024-0.72
	c0.576-0.36,0.936-0.936,1.008-1.512c0.072-0.648-0.216-1.224-0.72-1.728C223.441,154.656,222.433,154.224,221.281,154.08z"/>
<path fill="#FCEE17" d="M247.705,161.712c-0.648-0.072-1.224,0-1.656,0.288c-0.216,0.144-0.36,0.36-0.432,0.504
	c0,0.144,0.072,0.36,0.288,0.576c0.36,0.432,0.864,0.648,1.512,0.792c0.648,0.072,1.224-0.072,1.656-0.288
	c0.288-0.144,0.432-0.36,0.432-0.504c0.072-0.144-0.072-0.432-0.288-0.576C248.929,162.072,248.353,161.784,247.705,161.712z"/>
<path fill="#FCEE17" d="M285.289,116.64c-1.08,0-1.944,0.864-1.944,1.944c0,1.152,0.864,2.016,1.944,2.016
	c1.152,0,2.016-0.864,2.016-2.016C287.305,117.504,286.441,116.64,285.289,116.64z"/>
<path fill="#FCEE17" d="M268.585,136.368c1.656,0.144,2.88-0.144,3.672-0.72c0.72-0.432,1.152-1.152,1.368-2.088c0,0,0,0,0-0.072
	c-0.144-0.072-0.216-0.144-0.288-0.216c-0.792-0.648-1.656-1.296-2.952,0.216C269.593,134.352,269.017,135.36,268.585,136.368z"/>
<path fill="#FCEE17" d="M231.793,123.408c1.656,1.008,3.24,1.656,4.752,2.016c3.528,0.72,6.84-0.216,9.792-2.16
	c3.24-2.16,6.192-5.616,8.568-9.648c3.096-5.04,5.328-10.944,6.48-16.344c0.432-2.088,2.88-3.312,4.752-2.304
	c3.384,1.728,5.904,4.32,7.632,7.488c1.656,2.88,2.592,6.264,3.024,9.792c0.072-0.072,0.144-0.144,0.216-0.216
	c1.224-1.08,2.088-2.16,2.448-3.528c0.36-1.512,0.216-3.6-0.72-6.624c-1.512-4.896-4.968-9.648-10.728-13.104
	c-3.888-2.304-8.784-3.96-14.976-4.608c0.144,0.648,0.288,1.368,0.288,2.088c0,2.664-1.08,5.112-2.808,6.912
	c1.584,1.8,2.52,4.104,2.52,6.696c0,3.888-2.16,7.2-5.4,8.928c0.432,1.08,0.72,2.304,0.72,3.6c0,5.4-4.392,9.792-9.792,9.792
	c-2.304,0-4.464-0.864-6.192-2.304c-0.792-0.648-1.152-1.224-2.592-0.648C228.697,119.736,227.833,121.032,231.793,123.408z"/>
<path fill="#FCEE17" d="M223.441,77.184c-0.504,6.192-0.288,12.312,0.432,18.288c0.648,4.68,1.512,9.288,2.664,13.752
	c0.576-1.44,1.08-2.88,1.512-4.392c1.656-5.472,2.52-11.016,2.088-15.84c-0.504-4.464-2.16-8.352-5.544-11.016
	C224.233,77.688,223.801,77.4,223.441,77.184z"/>
<path fill="#FCEE17" d="M202.129,99.936c0.144,0,0.216,0,0.36,0c0.936-0.072,1.656-0.504,2.16-1.08
	c0.648-0.792,1.152-1.944,1.296-3.384c0.792-5.904,3.024-26.928-3.6-28.872c-0.288,8.496-0.792,23.688-0.576,32.976
	C201.913,99.72,201.985,99.864,202.129,99.936z"/>
<path fill="#FCEE17" d="M211.921,57.672c-2.016,0-3.672,1.656-3.672,3.672c0,1.008,0.36,1.944,1.08,2.592v0.072
	c0.648,0.649,1.584,1.008,2.592,1.008c2.016,0,3.672-1.656,3.672-3.672c0-1.008-0.432-1.944-1.08-2.592l0,0
	C213.865,58.104,212.929,57.672,211.921,57.672z"/>
<path fill="#FCEE17" d="M225.025,62.568c-1.944,0-3.528,1.584-3.528,3.528c0,0.936,0.432,1.8,1.008,2.448l0,0
	c0.648,0.648,1.512,1.008,2.52,1.008c1.944,0,3.528-1.584,3.528-3.456c0-1.008-0.432-1.872-1.008-2.52h-0.072
	C226.897,62.928,225.961,62.568,225.025,62.568z"/>
<path fill="#FCEE17" d="M237.193,70.632c-1.872,0-3.384,1.512-3.384,3.384c0,1.8,1.512,3.312,3.384,3.312
	c1.8,0,3.312-1.512,3.312-3.312C240.505,72.144,238.993,70.632,237.193,70.632z"/>
<path fill="#FCEE17" d="M243.313,82.944c-1.872,0-3.384,1.512-3.384,3.312c0,0.936,0.432,1.728,1.008,2.376
	c0.576,0.576,1.44,0.936,2.376,0.936c1.8,0,3.312-1.512,3.312-3.312c0-0.936-0.432-1.728-1.008-2.304
	C245.041,83.304,244.177,82.944,243.313,82.944z"/>
<path fill="#FCEE17" d="M243.025,96.552c-1.8,0-3.312,1.512-3.312,3.312c0,0.935,0.36,1.727,1.008,2.376
	c0.576,0.576,1.368,0.935,2.304,0.935c1.8,0,3.312-1.512,3.312-3.311c0-0.937-0.36-1.729-0.936-2.304
	C244.754,96.912,243.961,96.552,243.025,96.552z"/>
<path fill="#FCEE17" d="M238.561,109.368c-1.656,0-3.024,1.368-3.024,3.024c0,0.864,0.36,1.584,0.936,2.16l0,0
	c0.504,0.576,1.296,0.936,2.088,0.936c1.728,0,3.096-1.368,3.096-3.096c0-0.864-0.36-1.584-0.864-2.16h-0.072
	C240.217,109.728,239.425,109.368,238.561,109.368z"/>
<path fill="#FCEE17" d="M290.329,104.544c-1.728,0-3.168,1.368-3.168,3.168c0,1.728,1.44,3.096,3.168,3.096
	c1.728,0,3.168-1.368,3.168-3.096C293.497,105.912,292.057,104.544,290.329,104.544z"/>
<path fill="#FCEE17" d="M287.953,92.088c-1.512,0-2.808,1.296-2.808,2.88c0,1.584,1.296,2.88,2.808,2.88
	c1.584,0,2.88-1.296,2.88-2.88C290.833,93.384,289.537,92.088,287.953,92.088z"/>
<path fill="#FCEE17" d="M278.593,81c-1.512,0-2.736,1.152-2.736,2.664c0,1.512,1.224,2.736,2.736,2.736
	c1.44,0,2.664-1.224,2.664-2.736C281.257,82.152,280.033,81,278.593,81z"/>
<path fill="#FCEE17" d="M264.769,74.016c-1.44,0-2.664,1.224-2.664,2.736c0,1.44,1.224,2.664,2.664,2.664
	c1.512,0,2.736-1.224,2.736-2.664C267.505,75.24,266.281,74.016,264.769,74.016z"/>
<path fill="#FCEE17" d="M250.369,71.352c-1.512,0-2.736,1.224-2.736,2.664c0,1.512,1.224,2.736,2.736,2.736
	c1.512,0,2.664-1.224,2.664-2.736C253.033,72.576,251.881,71.352,250.369,71.352z"/>
<path fill="#FCEE17" d="M147.553,123.408c-1.656,1.008-3.24,1.656-4.752,2.016c-3.528,0.72-6.84-0.216-9.792-2.16
	c-3.24-2.16-6.192-5.616-8.568-9.648c-3.096-5.04-5.328-10.944-6.48-16.344c-0.432-2.088-2.88-3.312-4.752-2.304
	c-3.384,1.728-5.904,4.32-7.632,7.488c-1.656,2.88-2.592,6.264-3.024,9.792c-0.072-0.072-0.144-0.144-0.216-0.216
	c-1.224-1.08-2.088-2.16-2.448-3.528c-0.36-1.512-0.216-3.6,0.72-6.624c1.512-4.896,4.968-9.648,10.728-13.104
	c3.888-2.304,8.784-3.96,14.976-4.608c-0.144,0.648-0.288,1.368-0.288,2.088c0,2.664,1.08,5.112,2.808,6.912
	c-1.584,1.8-2.52,4.104-2.52,6.696c0,3.888,2.16,7.2,5.4,8.928c-0.432,1.08-0.72,2.304-0.72,3.6c0,5.4,4.392,9.792,9.792,9.792
	c2.304,0,4.464-0.864,6.192-2.304c0.792-0.648,1.152-1.224,2.592-0.648C150.649,119.736,151.513,121.032,147.553,123.408z"/>
<path fill="#FCEE17" d="M189.673,124.848L189.673,124.848c8.352,7.992,24.48,13.176,36,5.688c4.68,10.008,14.472,8.064,18,6.624
	c3.888,3.96,8.352,7.704,13.248,1.944c1.152-1.368,2.088-3.096,3.096-4.968c3.024-5.688,9.288-14.688,16.848-10.512
	c4.032,2.304,4.896,7.92,0.648,4.464c-3.312-2.736-6.624-5.4-12.168,1.008c-2.376,2.736-3.312,5.472-4.248,8.136
	c-1.944,5.472-4.104,8.64-9.936,7.344c-3.168-0.72-7.056-1.872-8.064-3.672c-3.528,1.944-16.632-0.864-18.36-4.752
	c-7.128,3.024-29.448-0.36-35.064-4.536c-5.616,4.176-27.936,7.56-35.064,4.536c-1.728,3.888-14.832,6.696-18.36,4.752
	c-1.008,1.8-4.896,2.952-8.064,3.672c-5.832,1.296-7.992-1.872-9.936-7.344c-0.936-2.664-1.872-5.4-4.248-8.136
	c-5.544-6.408-8.856-3.744-12.168-1.008c-4.248,3.456-3.384-2.16,0.648-4.464c7.56-4.176,13.824,4.824,16.848,10.512
	c1.008,1.872,1.944,3.6,3.096,4.968c4.896,5.76,9.36,2.016,13.248-1.944c3.528,1.44,13.32,3.384,18-6.624
	C165.193,138.024,181.321,132.84,189.673,124.848L189.673,124.848z"/>
<path fill="#FCEE17" d="M253.681,153.576c0.936,0.288,2.736-0.504,0.648-1.224c-0.648-0.288-1.368-0.432-1.656-0.576
	c-42.984-13.464-83.016-13.464-126,0c-0.288,0.144-1.008,0.288-1.656,0.576c-2.088,0.72-0.288,1.512,0.648,1.224
	C167.137,139.968,212.209,139.968,253.681,153.576z"/>
<rect x="166.417" y="379.656" fill="#ED1C24" width="46.512" height="19.8"/>
</svg>
